Indiana Jones 1 Raiders Lost Ark (1981)       

Alternatieve titel: Indiana Jones and the Raiders of the Lost Ark 


Verenigde Staten
Actie / Avontuur
115 minuten

geregisseerd door Steven Spielberg
met Harrison Ford, Karen Allen en John Rhys-Davies

Indiana Jones heeft maar één levensdoel: de wereld afreizen op zoek naar archeologische rijkdommen. Hij is een avonturier die voor niets terugschrikt om zijn doel te bereiken en zijn concurrenten te verslaan. Zijn voornaamste tegenstrever is Belloq, een gewetenloze Franse archeoloog in dienst van Nazi-Duitsland. In 1936 wil Hitler absoluut de Ark des Verbonds in zijn bezit krijgen. Indiana Jones krijgt de opdracht om de Ark te vinden voordat de Nazi's dat doen.

English

Storyline
The year is 1936. A professor who studies archeology named Indiana Jones is venturing in the jungles in South America searching for a golden statue. Unfortunately, he sets off a deadly trap doing so, miraculously, he escapes. Then, Jones hears from a museum curator named Marcus Brody about a biblical artifact called The Ark of the Covenant, which can hold the key to humanly existence. Jones has to venture to vast places such as Nepal and Egypt to find this artifact. However, he will have to fight his enemy Renee Belloq and a band of Nazis in order to reach it.



Spotinformatie 
Categorie : Beeld 
Formaat : DivX 
Bron : Retail


Taal.....: Engels
Subs ....: Nederlands (srt) (instelbaar) 
Thanks ..: cjdijk  

Format                           : AVI
Format/Info                      : Audio Video Interleave
File size                        : 697 MiB
Duration                         : 55mn 36s
Overall bit rate                 : 1 754 Kbps
Writing application              : VirtualDubMod 1.5.4.1 (build 2178/release)
Writing library                  : VirtualDubMod build 2178/release

Video
ID                               : 0
Format                           : MPEG-4 Visual
Format profile                   : Simple@L3
Format settings, BVOP            : Yes
Format settings, QPel            : No
Format settings, GMC             : No warppoints
Format settings, Matrix          : Custom
Codec ID                         : XVID
Codec ID/Hint                    : XviD
Duration                         : 55mn 36s
Bit rate                         : 1 299 Kbps
Width                            : 720 pixels
Height                           : 304 pixels
Display aspect ratio             : 2.35
Frame rate                       : 25.000 fps
Resolution                       : 24 bits
Colorimetry                      : 4:2:0
Scan type                        : Progressive
Bits/(Pixel*Frame)               : 0.237
Stream size                      : 516 MiB (74%)
Writing library                  : XviD 0.0.09 (UTC 2003-03-25)

Audio
ID                               : 1
Format                           : AC-3
Format/Info                      : Audio Coding 3
Codec ID                         : 2000
Duration                         : 55mn 36s
Bit rate mode                    : Constant
Bit rate                         : 448 Kbps
Channel(s)                       : 6 channels
Channel positions                : Front: L C R, Surround: L R, LFE
Sampling rate                    : 48.0 KHz
Stream size                      : 178 MiB (26%)
Alignment                        : Split accross interleaves
Interleave, duration             : 96 ms (2.40 video frames)
Interleave, preload duration     : 96 ms
Language                         : English / English
 
Genre : Actie
Avontuur


Weblink :  http://www.moviemeter.nl/film/317 
Weblink :  http://www.imdb.com/title/tt0082971 

*****************************************

Brought to you by 
2Lions Team

meer zien??
Kom dan eens kijken op ons Forum 
                   
http://www.2lions-site.nl  

2Lions the site to be for all your Dutch MOVIES and more

******************************************


DON T HIT AND RUN Niet gelijk afhaken als de FILM binnen is blijf seeden. 

Don`t quit after you finished the download, but keep seeding


There are fake torrents from uploaders who use our team name.
Those are not ours, or members from our team.
We 2Lions-Team are not responsible for the fake posts on our name

Wij 2Lions-Team zijn niet verantwoordelijk voor die zieke FAKE posten die op onze naam worden gedaan

Please check our site !!!
To the fakers Get a Live
 
 
